<?xml version="1.0"?>
<svg xmlns:rdf="http://www.w3.org/1999/02/22-rdf-syntax-ns#" xmlns="http://www.w3.org/2000/svg" xmlns:cc="http://creativecommons.org/ns#" xmlns:xlink="http://www.w3.org/1999/xlink" xmlns:dc="http://purl.org/dc/elements/1.1/" xmlns:svg="http://www.w3.org/2000/svg" id="svg6340" viewBox="0 0 344.36 642.19" version="1.0">
  <g id="layer1" transform="translate(-244.33 -113.41)">
    <path id="path31367" stroke="#000" stroke-width=".46971px" fill="none" d="m365.12 714.03z"/>
    <g id="g34981" transform="matrix(9.3996 0 0 11.982 -1655.9 -755.77)">
      <path id="path32258" stroke="#000" stroke-width=".086795px" fill="none" d="m215.01 64.711z"/>
      <path id="text34096" d="m211.28 72.625c-8.39-0.538-12.72 14.003-4.12 16.563 4.55 0.145 8.15-6.009 12.78-2.626 2.83 0.767 5.96 4.916 1.97 6.594-6.02 3.04-12.24 9.534-9.79 16.814 0.4 2.22 5.51 2.97 1.47 4.19-5.4 3.58-1.73 12.37 4.5 12.09 5.8 1.13 11.68-5.78 7.53-10.81-0.91-1.71-4.7-2.07-1.5-3.44 2.72-2.49-0.21-6.84 3.63-8.88 4.74-5.524 14.19-11.257 10.53-19.87-4.54-9.639-18.12-9.292-27-10.625z"/>
      <path id="text34100" d="m237.75 88.153c0 2.048-1 4.117-3.01 6.208-1.66 1.749-3.33 3.477-4.99 5.184-1.19 1.235-2.37 2.475-3.52 3.715-1.45 1.53-2.18 3.03-2.18 4.48 0 0.17 0.03 0.42 0.07 0.77 0.08 0.34 0.13 0.59 0.13 0.76 0 1.07-0.49 1.9-1.48 2.5-0.81 0.51-1.77 0.77-2.88 0.77-1.45 0-2.75-0.39-3.9-1.15-1.15-0.82-1.73-1.92-1.73-3.33 0-0.22 0.17-1.33 0.51-3.33 0.35-1.88 1.54-3.67 3.59-5.377 1.79-1.28 3.6-2.581 5.44-3.904 1.88-1.365 2.81-2.688 2.81-3.968 0-1.92-1.19-3.648-3.58-5.184-2.13-1.365-4.22-2.048-6.27-2.048-1.11 0-2.6 0.619-4.48 1.856-1.84 1.195-3.14 1.792-3.91 1.792-0.93 0-1.74-0.555-2.43-1.664-0.55-0.981-0.83-1.984-0.83-3.008 0-1.493 0.49-3.093 1.47-4.8 1.2-2.091 3.2-3.136 6.02-3.136 0.51 0 3.07 0.341 7.68 1.024 4.99 0.725 8.77 1.707 11.33 2.944 4.09 2.048 6.14 5.013 6.14 8.896m-12.1 31.877c0 1.53-0.64 2.75-1.92 3.64-1.23 0.86-2.66 1.28-4.28 1.28-1.5 0-2.84-0.44-4.04-1.34-1.19-0.94-1.79-2.13-1.79-3.58 0-1.46 0.6-2.63 1.79-3.52 1.2-0.94 2.54-1.41 4.04-1.41 1.58 0 2.96 0.4 4.16 1.21 1.36 0.94 2.04 2.18 2.04 3.72" fill="#02f839"/>
    </g>
  </g>
  <metadata>
    <rdf:RDF>
      <cc:Work>
        <dc:format>image/svg+xml</dc:format>
        <dc:type rdf:resource="http://purl.org/dc/dcmitype/StillImage"/>
        <cc:license rdf:resource="http://creativecommons.org/licenses/publicdomain/"/>
        <dc:publisher>
          <cc:Agent rdf:about="http://openclipart.org/">
            <dc:title>Openclipart</dc:title>
          </cc:Agent>
        </dc:publisher>
        <dc:title>question</dc:title>
        <dc:date>2008-01-03T19:33:32</dc:date>
        <dc:description>clip art, clipart, icon, icon, image, media, png, public domain, question, question, question mark, question mark, svg, symbol, symbol, </dc:description>
        <dc:source>http://openclipart.org/detail/10535/question-by-yves_guillou-10535</dc:source>
        <dc:creator>
          <cc:Agent>
            <dc:title>yves_guillou</dc:title>
          </cc:Agent>
        </dc:creator>
        <dc:subject>
          <rdf:Bag>
            <rdf:li>clip art</rdf:li>
            <rdf:li>clipart</rdf:li>
            <rdf:li>icon</rdf:li>
            <rdf:li>image</rdf:li>
            <rdf:li>media</rdf:li>
            <rdf:li>png</rdf:li>
            <rdf:li>public domain</rdf:li>
            <rdf:li>question</rdf:li>
            <rdf:li>question mark</rdf:li>
            <rdf:li>svg</rdf:li>
            <rdf:li>symbol</rdf:li>
          </rdf:Bag>
        </dc:subject>
      </cc:Work>
      <cc:License rdf:about="http://creativecommons.org/licenses/publicdomain/">
        <cc:permits rdf:resource="http://creativecommons.org/ns#Reproduction"/>
        <cc:permits rdf:resource="http://creativecommons.org/ns#Distribution"/>
        <cc:permits rdf:resource="http://creativecommons.org/ns#DerivativeWorks"/>
      </cc:License>
    </rdf:RDF>
  </metadata>
</svg>
